<mxfile host="app.diagrams.net" agent="Mozilla/5.0 (X11; Linux x86_64; rv:136.0) Gecko/20100101 Firefox/136.0" version="26.1.3">
  <diagram name="Page-1" id="aG5u5vzxF8hBMdiMbr-9">
    <mxGraphModel dx="1410" dy="894" grid="1" gridSize="10" guides="1" tooltips="1" connect="1" arrows="1" fold="1" page="1" pageScale="1" pageWidth="850" pageHeight="1100" math="0" shadow="0">
      <root>
        <mxCell id="0" />
        <mxCell id="1" parent="0" />
        <mxCell id="CZUfZdZhVDAsimaxsZR0-37" style="edgeStyle=orthogonalEdgeStyle;rounded=0;orthogonalLoop=1;jettySize=auto;html=1;entryX=1;entryY=0.5;entryDx=0;entryDy=0;" edge="1" parent="1" source="CZUfZdZhVDAsimaxsZR0-2" target="CZUfZdZhVDAsimaxsZR0-11">
          <mxGeometry relative="1" as="geometry" />
        </mxCell>
        <mxCell id="CZUfZdZhVDAsimaxsZR0-39" value="Receive&lt;br&gt;command" style="edgeLabel;html=1;align=center;verticalAlign=middle;resizable=0;points=[];" vertex="1" connectable="0" parent="CZUfZdZhVDAsimaxsZR0-37">
          <mxGeometry x="-0.0027" y="2" relative="1" as="geometry">
            <mxPoint as="offset" />
          </mxGeometry>
        </mxCell>
        <mxCell id="CZUfZdZhVDAsimaxsZR0-38" style="edgeStyle=orthogonalEdgeStyle;rounded=0;orthogonalLoop=1;jettySize=auto;html=1;entryX=0;entryY=0.5;entryDx=0;entryDy=0;" edge="1" parent="1" source="CZUfZdZhVDAsimaxsZR0-2" target="CZUfZdZhVDAsimaxsZR0-8">
          <mxGeometry relative="1" as="geometry" />
        </mxCell>
        <mxCell id="CZUfZdZhVDAsimaxsZR0-40" value="Receive&lt;br&gt;Message" style="edgeLabel;html=1;align=center;verticalAlign=middle;resizable=0;points=[];" vertex="1" connectable="0" parent="CZUfZdZhVDAsimaxsZR0-38">
          <mxGeometry x="-0.132" y="-1" relative="1" as="geometry">
            <mxPoint as="offset" />
          </mxGeometry>
        </mxCell>
        <mxCell id="CZUfZdZhVDAsimaxsZR0-2" value="Idle" style="html=1;align=center;verticalAlign=top;rounded=1;absoluteArcSize=1;arcSize=10;dashed=0;whiteSpace=wrap;" vertex="1" parent="1">
          <mxGeometry x="-550" y="110" width="100" height="30" as="geometry" />
        </mxCell>
        <mxCell id="CZUfZdZhVDAsimaxsZR0-65" style="edgeStyle=orthogonalEdgeStyle;rounded=0;orthogonalLoop=1;jettySize=auto;html=1;" edge="1" parent="1" source="CZUfZdZhVDAsimaxsZR0-3" target="CZUfZdZhVDAsimaxsZR0-15">
          <mxGeometry relative="1" as="geometry" />
        </mxCell>
        <mxCell id="CZUfZdZhVDAsimaxsZR0-73" value="if classified as&lt;br&gt;malicious Link" style="edgeLabel;html=1;align=center;verticalAlign=middle;resizable=0;points=[];" vertex="1" connectable="0" parent="CZUfZdZhVDAsimaxsZR0-65">
          <mxGeometry x="-0.1043" relative="1" as="geometry">
            <mxPoint as="offset" />
          </mxGeometry>
        </mxCell>
        <mxCell id="CZUfZdZhVDAsimaxsZR0-68" style="edgeStyle=orthogonalEdgeStyle;rounded=0;orthogonalLoop=1;jettySize=auto;html=1;entryX=0;entryY=0.5;entryDx=0;entryDy=0;" edge="1" parent="1" source="CZUfZdZhVDAsimaxsZR0-3" target="CZUfZdZhVDAsimaxsZR0-17">
          <mxGeometry relative="1" as="geometry" />
        </mxCell>
        <mxCell id="CZUfZdZhVDAsimaxsZR0-75" value="&lt;div&gt;No malicous&amp;nbsp;&lt;/div&gt;&lt;div&gt;link found&lt;/div&gt;" style="edgeLabel;html=1;align=center;verticalAlign=middle;resizable=0;points=[];" vertex="1" connectable="0" parent="CZUfZdZhVDAsimaxsZR0-68">
          <mxGeometry x="-0.251" y="2" relative="1" as="geometry">
            <mxPoint as="offset" />
          </mxGeometry>
        </mxCell>
        <mxCell id="CZUfZdZhVDAsimaxsZR0-3" value="LinkDetection" style="html=1;align=center;verticalAlign=top;rounded=1;absoluteArcSize=1;arcSize=10;dashed=0;whiteSpace=wrap;" vertex="1" parent="1">
          <mxGeometry x="-770" y="390" width="100" height="30" as="geometry" />
        </mxCell>
        <mxCell id="CZUfZdZhVDAsimaxsZR0-62" style="edgeStyle=orthogonalEdgeStyle;rounded=0;orthogonalLoop=1;jettySize=auto;html=1;entryX=0.5;entryY=0;entryDx=0;entryDy=0;" edge="1" parent="1" source="CZUfZdZhVDAsimaxsZR0-4" target="CZUfZdZhVDAsimaxsZR0-6">
          <mxGeometry relative="1" as="geometry" />
        </mxCell>
        <mxCell id="CZUfZdZhVDAsimaxsZR0-80" value="Clean &amp;amp; Transform Text" style="edgeLabel;html=1;align=center;verticalAlign=middle;resizable=0;points=[];" vertex="1" connectable="0" parent="CZUfZdZhVDAsimaxsZR0-62">
          <mxGeometry x="-0.4586" y="4" relative="1" as="geometry">
            <mxPoint as="offset" />
          </mxGeometry>
        </mxCell>
        <mxCell id="CZUfZdZhVDAsimaxsZR0-63" style="edgeStyle=orthogonalEdgeStyle;rounded=0;orthogonalLoop=1;jettySize=auto;html=1;" edge="1" parent="1" source="CZUfZdZhVDAsimaxsZR0-4" target="CZUfZdZhVDAsimaxsZR0-5">
          <mxGeometry relative="1" as="geometry" />
        </mxCell>
        <mxCell id="CZUfZdZhVDAsimaxsZR0-74" value="Extarct Title &amp;amp; Text" style="edgeLabel;html=1;align=center;verticalAlign=middle;resizable=0;points=[];" vertex="1" connectable="0" parent="CZUfZdZhVDAsimaxsZR0-63">
          <mxGeometry x="0.4547" relative="1" as="geometry">
            <mxPoint as="offset" />
          </mxGeometry>
        </mxCell>
        <mxCell id="CZUfZdZhVDAsimaxsZR0-64" style="edgeStyle=orthogonalEdgeStyle;rounded=0;orthogonalLoop=1;jettySize=auto;html=1;" edge="1" parent="1" source="CZUfZdZhVDAsimaxsZR0-4" target="CZUfZdZhVDAsimaxsZR0-3">
          <mxGeometry relative="1" as="geometry" />
        </mxCell>
        <mxCell id="CZUfZdZhVDAsimaxsZR0-81" value="Extarct URLs" style="edgeLabel;html=1;align=center;verticalAlign=middle;resizable=0;points=[];" vertex="1" connectable="0" parent="CZUfZdZhVDAsimaxsZR0-64">
          <mxGeometry x="0.6447" y="-1" relative="1" as="geometry">
            <mxPoint as="offset" />
          </mxGeometry>
        </mxCell>
        <mxCell id="CZUfZdZhVDAsimaxsZR0-4" value="MessageAnalysis" style="html=1;align=center;verticalAlign=top;rounded=1;absoluteArcSize=1;arcSize=10;dashed=0;whiteSpace=wrap;" vertex="1" parent="1">
          <mxGeometry x="-530" y="300" width="110" height="30" as="geometry" />
        </mxCell>
        <mxCell id="CZUfZdZhVDAsimaxsZR0-67" style="edgeStyle=orthogonalEdgeStyle;rounded=0;orthogonalLoop=1;jettySize=auto;html=1;entryX=0.5;entryY=0;entryDx=0;entryDy=0;" edge="1" parent="1" source="CZUfZdZhVDAsimaxsZR0-5" target="CZUfZdZhVDAsimaxsZR0-14">
          <mxGeometry relative="1" as="geometry" />
        </mxCell>
        <mxCell id="CZUfZdZhVDAsimaxsZR0-71" value="&lt;div&gt;if classified&amp;nbsp;&lt;/div&gt;&lt;div&gt;as fake news&lt;/div&gt;" style="edgeLabel;html=1;align=center;verticalAlign=middle;resizable=0;points=[];" vertex="1" connectable="0" parent="CZUfZdZhVDAsimaxsZR0-67">
          <mxGeometry x="-0.0359" y="1" relative="1" as="geometry">
            <mxPoint as="offset" />
          </mxGeometry>
        </mxCell>
        <mxCell id="CZUfZdZhVDAsimaxsZR0-69" style="edgeStyle=orthogonalEdgeStyle;rounded=0;orthogonalLoop=1;jettySize=auto;html=1;entryX=1;entryY=0.5;entryDx=0;entryDy=0;" edge="1" parent="1" source="CZUfZdZhVDAsimaxsZR0-5" target="CZUfZdZhVDAsimaxsZR0-17">
          <mxGeometry relative="1" as="geometry" />
        </mxCell>
        <mxCell id="CZUfZdZhVDAsimaxsZR0-78" value="No fake news" style="edgeLabel;html=1;align=center;verticalAlign=middle;resizable=0;points=[];" vertex="1" connectable="0" parent="CZUfZdZhVDAsimaxsZR0-69">
          <mxGeometry x="-0.2814" y="3" relative="1" as="geometry">
            <mxPoint as="offset" />
          </mxGeometry>
        </mxCell>
        <mxCell id="CZUfZdZhVDAsimaxsZR0-5" value="FakeNewsCheck" style="html=1;align=center;verticalAlign=top;rounded=1;absoluteArcSize=1;arcSize=10;dashed=0;whiteSpace=wrap;" vertex="1" parent="1">
          <mxGeometry x="-350" y="390" width="100" height="30" as="geometry" />
        </mxCell>
        <mxCell id="CZUfZdZhVDAsimaxsZR0-66" style="edgeStyle=orthogonalEdgeStyle;rounded=0;orthogonalLoop=1;jettySize=auto;html=1;" edge="1" parent="1" source="CZUfZdZhVDAsimaxsZR0-6" target="CZUfZdZhVDAsimaxsZR0-16">
          <mxGeometry relative="1" as="geometry" />
        </mxCell>
        <mxCell id="CZUfZdZhVDAsimaxsZR0-72" value="&lt;div&gt;if classfied&lt;/div&gt;&lt;div&gt;as spam message&lt;/div&gt;" style="edgeLabel;html=1;align=center;verticalAlign=middle;resizable=0;points=[];" vertex="1" connectable="0" parent="CZUfZdZhVDAsimaxsZR0-66">
          <mxGeometry x="-0.4715" y="1" relative="1" as="geometry">
            <mxPoint as="offset" />
          </mxGeometry>
        </mxCell>
        <mxCell id="CZUfZdZhVDAsimaxsZR0-70" style="edgeStyle=orthogonalEdgeStyle;rounded=0;orthogonalLoop=1;jettySize=auto;html=1;entryX=0.5;entryY=0;entryDx=0;entryDy=0;curved=1;" edge="1" parent="1" source="CZUfZdZhVDAsimaxsZR0-6" target="CZUfZdZhVDAsimaxsZR0-17">
          <mxGeometry relative="1" as="geometry">
            <Array as="points">
              <mxPoint x="-420" y="405" />
              <mxPoint x="-420" y="590" />
              <mxPoint x="-490" y="590" />
            </Array>
          </mxGeometry>
        </mxCell>
        <mxCell id="CZUfZdZhVDAsimaxsZR0-77" value="No spam Found" style="edgeLabel;html=1;align=center;verticalAlign=middle;resizable=0;points=[];" vertex="1" connectable="0" parent="CZUfZdZhVDAsimaxsZR0-70">
          <mxGeometry x="0.5112" y="-1" relative="1" as="geometry">
            <mxPoint as="offset" />
          </mxGeometry>
        </mxCell>
        <mxCell id="CZUfZdZhVDAsimaxsZR0-6" value="SpamDetection" style="html=1;align=center;verticalAlign=top;rounded=1;absoluteArcSize=1;arcSize=10;dashed=0;whiteSpace=wrap;" vertex="1" parent="1">
          <mxGeometry x="-540" y="390" width="100" height="30" as="geometry" />
        </mxCell>
        <mxCell id="CZUfZdZhVDAsimaxsZR0-54" style="edgeStyle=orthogonalEdgeStyle;rounded=0;orthogonalLoop=1;jettySize=auto;html=1;entryX=0.5;entryY=0;entryDx=0;entryDy=0;" edge="1" parent="1" source="CZUfZdZhVDAsimaxsZR0-7" target="CZUfZdZhVDAsimaxsZR0-19">
          <mxGeometry relative="1" as="geometry" />
        </mxCell>
        <mxCell id="CZUfZdZhVDAsimaxsZR0-55" value="Get text from args / reply" style="edgeLabel;html=1;align=center;verticalAlign=middle;resizable=0;points=[];" vertex="1" connectable="0" parent="CZUfZdZhVDAsimaxsZR0-54">
          <mxGeometry x="-0.2601" relative="1" as="geometry">
            <mxPoint as="offset" />
          </mxGeometry>
        </mxCell>
        <mxCell id="CZUfZdZhVDAsimaxsZR0-7" value="CheckNews" style="html=1;align=center;verticalAlign=top;rounded=1;absoluteArcSize=1;arcSize=10;dashed=0;whiteSpace=wrap;" vertex="1" parent="1">
          <mxGeometry x="-210" y="170" width="100" height="30" as="geometry" />
        </mxCell>
        <mxCell id="CZUfZdZhVDAsimaxsZR0-61" style="edgeStyle=orthogonalEdgeStyle;rounded=0;orthogonalLoop=1;jettySize=auto;html=1;entryX=0.5;entryY=0;entryDx=0;entryDy=0;" edge="1" parent="1" source="CZUfZdZhVDAsimaxsZR0-8" target="CZUfZdZhVDAsimaxsZR0-4">
          <mxGeometry relative="1" as="geometry">
            <Array as="points">
              <mxPoint x="-315" y="230" />
              <mxPoint x="-475" y="230" />
            </Array>
          </mxGeometry>
        </mxCell>
        <mxCell id="CZUfZdZhVDAsimaxsZR0-82" value="Text Message Received" style="edgeLabel;html=1;align=center;verticalAlign=middle;resizable=0;points=[];" vertex="1" connectable="0" parent="CZUfZdZhVDAsimaxsZR0-61">
          <mxGeometry x="0.098" y="1" relative="1" as="geometry">
            <mxPoint as="offset" />
          </mxGeometry>
        </mxCell>
        <mxCell id="CZUfZdZhVDAsimaxsZR0-8" value="ProcessingMessage" style="html=1;align=center;verticalAlign=top;rounded=1;absoluteArcSize=1;arcSize=10;dashed=0;whiteSpace=wrap;" vertex="1" parent="1">
          <mxGeometry x="-380" y="110" width="130" height="30" as="geometry" />
        </mxCell>
        <mxCell id="CZUfZdZhVDAsimaxsZR0-47" style="edgeStyle=orthogonalEdgeStyle;rounded=0;orthogonalLoop=1;jettySize=auto;html=1;entryX=0.5;entryY=0;entryDx=0;entryDy=0;" edge="1" parent="1" source="CZUfZdZhVDAsimaxsZR0-9" target="CZUfZdZhVDAsimaxsZR0-12">
          <mxGeometry relative="1" as="geometry" />
        </mxCell>
        <mxCell id="CZUfZdZhVDAsimaxsZR0-48" value="show start info" style="edgeLabel;html=1;align=center;verticalAlign=middle;resizable=0;points=[];" vertex="1" connectable="0" parent="CZUfZdZhVDAsimaxsZR0-47">
          <mxGeometry x="-0.2676" y="1" relative="1" as="geometry">
            <mxPoint as="offset" />
          </mxGeometry>
        </mxCell>
        <mxCell id="CZUfZdZhVDAsimaxsZR0-9" value="Start" style="html=1;align=center;verticalAlign=top;rounded=1;absoluteArcSize=1;arcSize=10;dashed=0;whiteSpace=wrap;" vertex="1" parent="1">
          <mxGeometry x="-820" y="180" width="100" height="30" as="geometry" />
        </mxCell>
        <mxCell id="CZUfZdZhVDAsimaxsZR0-45" style="edgeStyle=orthogonalEdgeStyle;rounded=0;orthogonalLoop=1;jettySize=auto;html=1;entryX=0.5;entryY=0;entryDx=0;entryDy=0;" edge="1" parent="1" source="CZUfZdZhVDAsimaxsZR0-10" target="CZUfZdZhVDAsimaxsZR0-13">
          <mxGeometry relative="1" as="geometry" />
        </mxCell>
        <mxCell id="CZUfZdZhVDAsimaxsZR0-46" value="show help info" style="edgeLabel;html=1;align=center;verticalAlign=middle;resizable=0;points=[];" vertex="1" connectable="0" parent="CZUfZdZhVDAsimaxsZR0-45">
          <mxGeometry x="-0.1595" relative="1" as="geometry">
            <mxPoint as="offset" />
          </mxGeometry>
        </mxCell>
        <mxCell id="CZUfZdZhVDAsimaxsZR0-10" value="Help" style="html=1;align=center;verticalAlign=top;rounded=1;absoluteArcSize=1;arcSize=10;dashed=0;whiteSpace=wrap;" vertex="1" parent="1">
          <mxGeometry x="-680" y="180" width="100" height="30" as="geometry" />
        </mxCell>
        <mxCell id="CZUfZdZhVDAsimaxsZR0-41" style="edgeStyle=orthogonalEdgeStyle;rounded=0;orthogonalLoop=1;jettySize=auto;html=1;entryX=0.5;entryY=0;entryDx=0;entryDy=0;" edge="1" parent="1" source="CZUfZdZhVDAsimaxsZR0-11" target="CZUfZdZhVDAsimaxsZR0-9">
          <mxGeometry relative="1" as="geometry" />
        </mxCell>
        <mxCell id="CZUfZdZhVDAsimaxsZR0-44" value="/start" style="edgeLabel;html=1;align=center;verticalAlign=middle;resizable=0;points=[];" vertex="1" connectable="0" parent="CZUfZdZhVDAsimaxsZR0-41">
          <mxGeometry x="0.0742" relative="1" as="geometry">
            <mxPoint as="offset" />
          </mxGeometry>
        </mxCell>
        <mxCell id="CZUfZdZhVDAsimaxsZR0-42" style="edgeStyle=orthogonalEdgeStyle;rounded=0;orthogonalLoop=1;jettySize=auto;html=1;entryX=0.5;entryY=0;entryDx=0;entryDy=0;" edge="1" parent="1" source="CZUfZdZhVDAsimaxsZR0-11" target="CZUfZdZhVDAsimaxsZR0-10">
          <mxGeometry relative="1" as="geometry" />
        </mxCell>
        <mxCell id="CZUfZdZhVDAsimaxsZR0-43" value="/help" style="edgeLabel;html=1;align=center;verticalAlign=middle;resizable=0;points=[];" vertex="1" connectable="0" parent="CZUfZdZhVDAsimaxsZR0-42">
          <mxGeometry x="-0.03" y="-2" relative="1" as="geometry">
            <mxPoint as="offset" />
          </mxGeometry>
        </mxCell>
        <mxCell id="CZUfZdZhVDAsimaxsZR0-52" style="edgeStyle=orthogonalEdgeStyle;rounded=0;orthogonalLoop=1;jettySize=auto;html=1;entryX=0;entryY=0.5;entryDx=0;entryDy=0;jumpStyle=arc;" edge="1" parent="1" source="CZUfZdZhVDAsimaxsZR0-11" target="CZUfZdZhVDAsimaxsZR0-7">
          <mxGeometry relative="1" as="geometry">
            <Array as="points">
              <mxPoint x="-700" y="160" />
              <mxPoint x="-420" y="160" />
              <mxPoint x="-420" y="185" />
            </Array>
          </mxGeometry>
        </mxCell>
        <mxCell id="CZUfZdZhVDAsimaxsZR0-53" value="/checknews" style="edgeLabel;html=1;align=center;verticalAlign=middle;resizable=0;points=[];" vertex="1" connectable="0" parent="CZUfZdZhVDAsimaxsZR0-52">
          <mxGeometry x="-0.5187" y="-2" relative="1" as="geometry">
            <mxPoint x="31" as="offset" />
          </mxGeometry>
        </mxCell>
        <mxCell id="CZUfZdZhVDAsimaxsZR0-11" value="ProcessingCommand" style="html=1;align=center;verticalAlign=top;rounded=1;absoluteArcSize=1;arcSize=10;dashed=0;whiteSpace=wrap;" vertex="1" parent="1">
          <mxGeometry x="-770" y="110" width="140" height="30" as="geometry" />
        </mxCell>
        <mxCell id="CZUfZdZhVDAsimaxsZR0-50" style="edgeStyle=orthogonalEdgeStyle;rounded=0;orthogonalLoop=1;jettySize=auto;html=1;entryX=0.5;entryY=1;entryDx=0;entryDy=0;jumpStyle=arc;" edge="1" parent="1" source="CZUfZdZhVDAsimaxsZR0-12" target="CZUfZdZhVDAsimaxsZR0-2">
          <mxGeometry relative="1" as="geometry">
            <Array as="points">
              <mxPoint x="-770" y="290" />
              <mxPoint x="-500" y="290" />
            </Array>
          </mxGeometry>
        </mxCell>
        <mxCell id="CZUfZdZhVDAsimaxsZR0-12" value="DisplayWelcome" style="html=1;align=center;verticalAlign=top;rounded=1;absoluteArcSize=1;arcSize=10;dashed=0;whiteSpace=wrap;" vertex="1" parent="1">
          <mxGeometry x="-820" y="250" width="100" height="30" as="geometry" />
        </mxCell>
        <mxCell id="CZUfZdZhVDAsimaxsZR0-49" style="edgeStyle=orthogonalEdgeStyle;rounded=0;orthogonalLoop=1;jettySize=auto;html=1;entryX=0.5;entryY=1;entryDx=0;entryDy=0;jumpStyle=arc;" edge="1" parent="1" source="CZUfZdZhVDAsimaxsZR0-13" target="CZUfZdZhVDAsimaxsZR0-2">
          <mxGeometry relative="1" as="geometry" />
        </mxCell>
        <mxCell id="CZUfZdZhVDAsimaxsZR0-13" value="DisplayHelp" style="html=1;align=center;verticalAlign=top;rounded=1;absoluteArcSize=1;arcSize=10;dashed=0;whiteSpace=wrap;" vertex="1" parent="1">
          <mxGeometry x="-680" y="250" width="100" height="30" as="geometry" />
        </mxCell>
        <mxCell id="CZUfZdZhVDAsimaxsZR0-84" style="edgeStyle=orthogonalEdgeStyle;rounded=0;orthogonalLoop=1;jettySize=auto;html=1;endArrow=none;startFill=0;" edge="1" parent="1" source="CZUfZdZhVDAsimaxsZR0-14">
          <mxGeometry relative="1" as="geometry">
            <mxPoint x="-300" y="700" as="targetPoint" />
          </mxGeometry>
        </mxCell>
        <mxCell id="CZUfZdZhVDAsimaxsZR0-14" value="FakeNewsWarning" style="html=1;align=center;verticalAlign=top;rounded=1;absoluteArcSize=1;arcSize=10;dashed=0;whiteSpace=wrap;" vertex="1" parent="1">
          <mxGeometry x="-357.5" y="500" width="115" height="30" as="geometry" />
        </mxCell>
        <mxCell id="CZUfZdZhVDAsimaxsZR0-83" style="edgeStyle=orthogonalEdgeStyle;rounded=0;orthogonalLoop=1;jettySize=auto;html=1;jumpStyle=arc;" edge="1" parent="1" source="CZUfZdZhVDAsimaxsZR0-15" target="CZUfZdZhVDAsimaxsZR0-2">
          <mxGeometry relative="1" as="geometry">
            <Array as="points">
              <mxPoint x="-720" y="700" />
              <mxPoint x="-230" y="700" />
              <mxPoint x="-230" y="90" />
              <mxPoint x="-470" y="90" />
            </Array>
          </mxGeometry>
        </mxCell>
        <mxCell id="CZUfZdZhVDAsimaxsZR0-88" value="Analysis Complete" style="edgeLabel;html=1;align=center;verticalAlign=middle;resizable=0;points=[];" vertex="1" connectable="0" parent="CZUfZdZhVDAsimaxsZR0-83">
          <mxGeometry x="-0.2336" relative="1" as="geometry">
            <mxPoint as="offset" />
          </mxGeometry>
        </mxCell>
        <mxCell id="CZUfZdZhVDAsimaxsZR0-15" value="MaliciousLinkWarning" style="html=1;align=center;verticalAlign=top;rounded=1;absoluteArcSize=1;arcSize=10;dashed=0;whiteSpace=wrap;" vertex="1" parent="1">
          <mxGeometry x="-785" y="510" width="130" height="30" as="geometry" />
        </mxCell>
        <mxCell id="CZUfZdZhVDAsimaxsZR0-86" style="edgeStyle=orthogonalEdgeStyle;rounded=0;orthogonalLoop=1;jettySize=auto;html=1;endArrow=none;startFill=0;jumpStyle=arc;" edge="1" parent="1" source="CZUfZdZhVDAsimaxsZR0-16">
          <mxGeometry relative="1" as="geometry">
            <mxPoint x="-590" y="700" as="targetPoint" />
          </mxGeometry>
        </mxCell>
        <mxCell id="CZUfZdZhVDAsimaxsZR0-16" value="SpamWarning" style="html=1;align=center;verticalAlign=top;rounded=1;absoluteArcSize=1;arcSize=10;dashed=0;whiteSpace=wrap;" vertex="1" parent="1">
          <mxGeometry x="-540" y="510" width="100" height="30" as="geometry" />
        </mxCell>
        <mxCell id="CZUfZdZhVDAsimaxsZR0-85" style="edgeStyle=orthogonalEdgeStyle;rounded=0;orthogonalLoop=1;jettySize=auto;html=1;endArrow=none;startFill=0;" edge="1" parent="1" source="CZUfZdZhVDAsimaxsZR0-17">
          <mxGeometry relative="1" as="geometry">
            <mxPoint x="-490" y="700" as="targetPoint" />
          </mxGeometry>
        </mxCell>
        <mxCell id="CZUfZdZhVDAsimaxsZR0-17" value="Continue" style="html=1;align=center;verticalAlign=top;rounded=1;absoluteArcSize=1;arcSize=10;dashed=0;whiteSpace=wrap;" vertex="1" parent="1">
          <mxGeometry x="-540" y="630" width="100" height="30" as="geometry" />
        </mxCell>
        <mxCell id="CZUfZdZhVDAsimaxsZR0-58" style="edgeStyle=orthogonalEdgeStyle;rounded=0;orthogonalLoop=1;jettySize=auto;html=1;entryX=0;entryY=0.5;entryDx=0;entryDy=0;" edge="1" parent="1" source="CZUfZdZhVDAsimaxsZR0-18" target="CZUfZdZhVDAsimaxsZR0-20">
          <mxGeometry relative="1" as="geometry" />
        </mxCell>
        <mxCell id="CZUfZdZhVDAsimaxsZR0-59" value="Generate analysis&lt;br&gt;and report" style="edgeLabel;html=1;align=center;verticalAlign=middle;resizable=0;points=[];" vertex="1" connectable="0" parent="CZUfZdZhVDAsimaxsZR0-58">
          <mxGeometry x="-0.3042" y="-1" relative="1" as="geometry">
            <mxPoint as="offset" />
          </mxGeometry>
        </mxCell>
        <mxCell id="CZUfZdZhVDAsimaxsZR0-18" value="NewsAnalysis" style="html=1;align=center;verticalAlign=top;rounded=1;absoluteArcSize=1;arcSize=10;dashed=0;whiteSpace=wrap;" vertex="1" parent="1">
          <mxGeometry x="-210" y="410" width="100" height="30" as="geometry" />
        </mxCell>
        <mxCell id="CZUfZdZhVDAsimaxsZR0-56" style="edgeStyle=orthogonalEdgeStyle;rounded=0;orthogonalLoop=1;jettySize=auto;html=1;" edge="1" parent="1" source="CZUfZdZhVDAsimaxsZR0-19" target="CZUfZdZhVDAsimaxsZR0-18">
          <mxGeometry relative="1" as="geometry" />
        </mxCell>
        <mxCell id="CZUfZdZhVDAsimaxsZR0-57" value="Extact title &amp;amp; text" style="edgeLabel;html=1;align=center;verticalAlign=middle;resizable=0;points=[];" vertex="1" connectable="0" parent="CZUfZdZhVDAsimaxsZR0-56">
          <mxGeometry x="0.0042" y="-2" relative="1" as="geometry">
            <mxPoint as="offset" />
          </mxGeometry>
        </mxCell>
        <mxCell id="CZUfZdZhVDAsimaxsZR0-19" value="ExtactNewsText" style="html=1;align=center;verticalAlign=top;rounded=1;absoluteArcSize=1;arcSize=10;dashed=0;whiteSpace=wrap;" vertex="1" parent="1">
          <mxGeometry x="-210" y="290" width="100" height="30" as="geometry" />
        </mxCell>
        <mxCell id="CZUfZdZhVDAsimaxsZR0-60" style="edgeStyle=orthogonalEdgeStyle;rounded=0;orthogonalLoop=1;jettySize=auto;html=1;" edge="1" parent="1" source="CZUfZdZhVDAsimaxsZR0-20">
          <mxGeometry relative="1" as="geometry">
            <mxPoint x="-470" y="110" as="targetPoint" />
            <Array as="points">
              <mxPoint x="-80" y="90" />
              <mxPoint x="-470" y="90" />
              <mxPoint x="-470" y="110" />
            </Array>
          </mxGeometry>
        </mxCell>
        <mxCell id="CZUfZdZhVDAsimaxsZR0-20" value="DisplayNewsResult" style="html=1;align=center;verticalAlign=top;rounded=1;absoluteArcSize=1;arcSize=10;dashed=0;whiteSpace=wrap;" vertex="1" parent="1">
          <mxGeometry x="-140" y="510" width="120" height="30" as="geometry" />
        </mxCell>
        <mxCell id="CZUfZdZhVDAsimaxsZR0-34" style="edgeStyle=orthogonalEdgeStyle;rounded=0;orthogonalLoop=1;jettySize=auto;html=1;entryX=0.5;entryY=0;entryDx=0;entryDy=0;" edge="1" parent="1" source="CZUfZdZhVDAsimaxsZR0-32" target="CZUfZdZhVDAsimaxsZR0-2">
          <mxGeometry relative="1" as="geometry" />
        </mxCell>
        <mxCell id="CZUfZdZhVDAsimaxsZR0-35" value="Bot started" style="edgeLabel;html=1;align=center;verticalAlign=middle;resizable=0;points=[];" vertex="1" connectable="0" parent="CZUfZdZhVDAsimaxsZR0-34">
          <mxGeometry x="-0.1631" y="1" relative="1" as="geometry">
            <mxPoint as="offset" />
          </mxGeometry>
        </mxCell>
        <mxCell id="CZUfZdZhVDAsimaxsZR0-32" value="" style="ellipse;html=1;shape=endState;fillColor=strokeColor;" vertex="1" parent="1">
          <mxGeometry x="-515" y="20" width="30" height="30" as="geometry" />
        </mxCell>
      </root>
    </mxGraphModel>
  </diagram>
</mxfile>
